<?xml version="1.0" encoding="UTF-8" standalone="no"?>
<svg
   version="1.1"
   id="Layer_1"
   x="0px"
   y="0px"
   viewBox="0 0 40 40"
   xml:space="preserve"
   width="40"
   height="40"
   xmlns="http://www.w3.org/2000/svg"
   xmlns:svg="http://www.w3.org/2000/svg"
   xmlns:rdf="http://www.w3.org/1999/02/22-rdf-syntax-ns#"
   xmlns:cc="http://creativecommons.org/ns#"
   xmlns:dc="http://purl.org/dc/elements/1.1/"><metadata
   id="metadata15"><rdf:RDF><cc:Work
       rdf:about=""><dc:format>image/svg+xml</dc:format><dc:type
         rdf:resource="http://purl.org/dc/dcmitype/StillImage" /></cc:Work></rdf:RDF></metadata><defs
   id="defs13">
	
	

		
	</defs>
<style
   type="text/css"
   id="style2">
	.st0{fill:none;stroke:#0F62F4;stroke-width:4;stroke-linejoin:round;stroke-miterlimit:10;}
</style>
<path
   class="st0"
   d="m 38.500268,24.645442 c 0,2.933963 -2.363471,5.501181 -5.297434,5.501181 H 6.7971659 c -2.9339631,0 -5.2974335,-2.607968 -5.2974335,-5.501181 0,-2.933964 2.3634704,-5.378933 5.2974335,-5.378933 0.3259959,0 0.6112423,-0.04075 0.9372382,0.04075 0.162998,-3.585955 2.8932139,-6.438419 6.1939219,-6.438419 1.915226,0 3.585955,0.896488 4.726941,2.36347 1.018737,-3.137711 3.789702,-5.3789325 7.049661,-5.3789325 4.115699,0 7.457157,3.6267045 7.457157,8.1091485 0,0.407494 -0.04075,0.855739 -0.0815,1.222484 0.04075,0 0.04075,0.122249 0.0815,0.122249 2.933963,-0.0815 5.338183,2.404219 5.338183,5.338183 z"
   id="path4"
   style="stroke:#000000;stroke-opacity:1;stroke-width:3;stroke-dasharray:none" />

</svg>
