<?xml version="1.0" encoding="UTF-8" standalone="no"?>
<svg
   xmlns:i="&amp;#38;ns_ai;"
   xmlns:dc="http://purl.org/dc/elements/1.1/"
   xmlns:cc="http://creativecommons.org/ns#"
   xmlns:rdf="http://www.w3.org/1999/02/22-rdf-syntax-ns#"
   xmlns:svg="http://www.w3.org/2000/svg"
   xmlns="http://www.w3.org/2000/svg"
   version="1.1"
   id="Layer_1"
   x="0px"
   y="0px"
   viewBox="0 0 40 40"
   xml:space="preserve"
   width="40"
   height="40"><metadata
   id="metadata15"><rdf:RDF><cc:Work
       rdf:about=""><dc:format>image/svg+xml</dc:format><dc:type
         rdf:resource="http://purl.org/dc/dcmitype/StillImage" /><dc:title></dc:title></cc:Work></rdf:RDF></metadata><defs
   id="defs13">
	
	
</defs>
<style
   type="text/css"
   id="style2">
	.st0{fill:none;stroke:#0F62F4;stroke-width:4;stroke-linejoin:round;stroke-miterlimit:10;}
</style>
<g
   i:extraneous="self"
   id="g6"
   transform="matrix(0.40749488,0,0,0.40749488,-0.40645443,-0.34113901)"
   style="stroke-width:7.36074;stroke-miterlimit:10;stroke-dasharray:none">
		<path
   style="color:#000000;font-style:normal;font-variant:normal;font-weight:normal;font-stretch:normal;font-size:medium;line-height:normal;font-family:sans-serif;font-variant-ligatures:normal;font-variant-position:normal;font-variant-caps:normal;font-variant-numeric:normal;font-variant-alternates:normal;font-variant-east-asian:normal;font-feature-settings:normal;font-variation-settings:normal;text-indent:0;text-align:start;text-decoration:none;text-decoration-line:none;text-decoration-style:solid;text-decoration-color:#000000;letter-spacing:normal;word-spacing:normal;text-transform:none;writing-mode:lr-tb;direction:ltr;text-orientation:mixed;dominant-baseline:auto;baseline-shift:baseline;text-anchor:start;white-space:normal;shape-padding:0;shape-margin:0;inline-size:0;clip-rule:nonzero;display:inline;overflow:visible;visibility:visible;isolation:auto;mix-blend-mode:normal;color-interpolation:sRGB;color-interpolation-filters:linearRGB;solid-color:#000000;solid-opacity:1;vector-effect:none;fill:#000000;fill-opacity:1;fill-rule:nonzero;stroke:none;stroke-linecap:butt;stroke-linejoin:round;stroke-miterlimit:10;stroke-dasharray:none;stroke-dashoffset:0;stroke-opacity:1;color-rendering:auto;image-rendering:auto;shape-rendering:auto;text-rendering:auto;enable-background:accumulate;stop-color:#000000;stop-opacity:1;opacity:1"
   d="M 64 21.519531 C 56.17731 21.519531 49.397266 25.906194 45.505859 32.359375 C 42.518873 30.244711 38.973778 28.919922 35.099609 28.919922 C 26.043178 28.919922 18.62106 35.790892 16.707031 44.710938 C 7.8900471 45.197366 0.91992188 52.62719 0.91992188 61.5 C 0.91992188 70.604333 8.2186493 78.679688 17.599609 78.679688 L 82.400391 78.679688 C 91.747273 78.679688 99.080078 70.676495 99.080078 61.5 C 99.080078 53.577723 93.481516 46.713549 85.980469 45.103516 C 85.980469 45.102094 85.980469 45.101031 85.980469 45.099609 C 85.980469 32.270577 76.262066 21.519531 64 21.519531 z M 64 28.880859 C 71.937934 28.880859 78.619141 35.928642 78.619141 45.099609 C 78.619141 45.854251 78.534798 46.852837 78.441406 47.693359 A 3.6807381 3.6807381 0 0 0 78.994141 50.072266 C 79.016434 50.114722 78.996625 50.092363 79.023438 50.140625 C 79.039093 50.168805 79.101416 50.226904 79.119141 50.257812 A 3.6807381 3.6807381 0 0 0 79.425781 50.628906 C 79.565439 50.819468 79.620381 50.96987 79.900391 51.205078 C 80.051898 51.332345 80.38904 51.343851 80.603516 51.460938 A 3.6807381 3.6807381 0 0 0 81.087891 51.638672 A 3.6807381 3.6807381 0 0 0 81.095703 51.640625 C 81.515853 51.806225 81.832566 52.080078 82.300781 52.080078 A 3.6807381 3.6807381 0 0 0 82.402344 52.078125 C 87.470235 51.93735 91.71875 56.310573 91.71875 61.5 C 91.71875 66.723505 87.453508 71.320312 82.400391 71.320312 L 17.599609 71.320312 C 12.580569 71.320312 8.28125 66.595667 8.28125 61.5 C 8.28125 56.276495 12.444259 51.980469 17.599609 51.980469 C 18.706307 51.980469 18.977917 51.963229 19.007812 51.970703 A 3.6807381 3.6807381 0 0 0 23.576172 48.566406 C 23.895542 41.540258 29.119987 36.28125 35.099609 36.28125 C 38.651125 36.28125 41.617741 37.860923 43.794922 40.660156 A 3.6807381 3.6807381 0 0 0 50.201172 39.537109 C 52.254817 33.211883 57.686836 28.880859 64 28.880859 z M 82.300781 44.71875 C 82.314561 44.71875 82.322149 44.732225 82.335938 44.732422 C 82.288521 44.733323 82.244776 44.719383 82.197266 44.720703 L 82.300781 44.71875 z "
   id="path4" />
	</g>

</svg>
