<?xml version="1.0" encoding="UTF-8" standalone="no"?>
<svg
   xmlns:i="&amp;ns_ai;"
   xmlns:dc="http://purl.org/dc/elements/1.1/"
   xmlns:cc="http://creativecommons.org/ns#"
   xmlns:rdf="http://www.w3.org/1999/02/22-rdf-syntax-ns#"
   xmlns:svg="http://www.w3.org/2000/svg"
   xmlns="http://www.w3.org/2000/svg"
   xmlns:sodipodi="http://sodipodi.sourceforge.net/DTD/sodipodi-0.dtd"
   xmlns:inkscape="http://www.inkscape.org/namespaces/inkscape"
   version="1.1"
   id="Layer_1"
   x="0px"
   y="0px"
   viewBox="0 0 40 40"
   xml:space="preserve"
   sodipodi:docname="cloud_inkscape.svg"
   width="40"
   height="40"
   inkscape:version="1.0.2 (e86c870879, 2021-01-15, custom)"><metadata
   id="metadata15"><rdf:RDF><cc:Work
       rdf:about=""><dc:format>image/svg+xml</dc:format><dc:type
         rdf:resource="http://purl.org/dc/dcmitype/StillImage" /><dc:title></dc:title></cc:Work></rdf:RDF></metadata><defs
   id="defs13">
	
	
</defs><sodipodi:namedview
   pagecolor="#ffffff"
   bordercolor="#666666"
   borderopacity="1"
   objecttolerance="10"
   gridtolerance="10"
   guidetolerance="10"
   inkscape:pageopacity="0"
   inkscape:pageshadow="2"
   inkscape:window-width="1920"
   inkscape:window-height="1010"
   id="namedview11"
   showgrid="false"
   inkscape:zoom="8.29"
   inkscape:cx="13.469061"
   inkscape:cy="28.742204"
   inkscape:window-x="0"
   inkscape:window-y="0"
   inkscape:window-maximized="1"
   inkscape:current-layer="Layer_1" />
<style
   type="text/css"
   id="style2">
	.st0{fill:none;stroke:#0F62F4;stroke-width:4;stroke-linejoin:round;stroke-miterlimit:10;}
</style>
<g
   i:extraneous="self"
   id="g6"
   transform="matrix(0.40749488,0,0,0.40749488,-0.40645443,-0.34113901)"
   style="stroke-width:7.36074;stroke-miterlimit:10;stroke-dasharray:none">
		<path
   class="st0"
   d="m 95.4,61.5 c 0,7.2 -5.8,13.5 -13,13.5 H 17.6 c -7.2,0 -13,-6.4 -13,-13.5 0,-7.2 5.8,-13.2 13,-13.2 0.8,0 1.5,-0.1 2.3,0.1 0.4,-8.8 7.1,-15.8 15.2,-15.8 4.7,0 8.8,2.2 11.6,5.8 2.5,-7.7 9.3,-13.2 17.3,-13.2 10.1,0 18.3,8.9 18.3,19.9 0,1 -0.1,2.1 -0.2,3 0.1,0 0.1,0.3 0.2,0.3 7.2,-0.2 13.1,5.9 13.1,13.1 z"
   id="path4"
   style="stroke:#000000;stroke-width:7.36074;stroke-miterlimit:10;stroke-dasharray:none;stroke-opacity:1" />
	</g>

</svg>
