<?xml version="1.0" encoding="UTF-8" standalone="no"?>
<svg
   xmlns:dc="http://purl.org/dc/elements/1.1/"
   xmlns:cc="http://creativecommons.org/ns#"
   xmlns:rdf="http://www.w3.org/1999/02/22-rdf-syntax-ns#"
   xmlns:svg="http://www.w3.org/2000/svg"
   xmlns="http://www.w3.org/2000/svg"
   width="39"
   height="26"
   viewBox="0 0 10.31875 6.8791667"
   version="1.1"
   id="svg24">
  <defs
     id="defs18" />
  <metadata
     id="metadata21">
    <rdf:RDF>
      <cc:Work
         rdf:about="">
        <dc:format>image/svg+xml</dc:format>
        <dc:type
           rdf:resource="http://purl.org/dc/dcmitype/StillImage" />
        <dc:title></dc:title>
      </cc:Work>
    </rdf:RDF>
  </metadata>
  <g
     id="layer1"
     transform="translate(-0.52916655,-3.175)">
    <path
       id="path30-1"
       style="fill:#787878;fill-opacity:1;stroke:none;stroke-width:0.529167;stroke-miterlimit:4;stroke-dasharray:none;stroke-opacity:1"
       d="M 5.6885415,3.9460122 A 3.175,3.175 0 0 0 4.2333332,6.6145832 3.175,3.175 0 0 0 5.6885415,9.2831543 3.175,3.175 0 0 0 7.1437498,6.6145832 3.175,3.175 0 0 0 5.6885415,3.9460122 Z" />
    <circle
       style="fill:none;fill-opacity:0;stroke:#000000;stroke-width:0.529167;stroke-miterlimit:4;stroke-dasharray:none;stroke-opacity:1"
       id="path30"
       cx="3.96875"
       cy="6.6145835"
       r="3.175" />
    <circle
       style="fill:none;fill-opacity:0;stroke:#000000;stroke-width:0.529167;stroke-miterlimit:4;stroke-dasharray:none;stroke-opacity:1"
       id="path30-5"
       cx="7.4083333"
       cy="6.6145835"
       r="3.175" />
    <path
       id="path30-7"
       style="fill:#000000;fill-opacity:1;stroke:none;stroke-width:0.529167;stroke-miterlimit:4;stroke-dasharray:none;stroke-opacity:1"
       d="m 7.4083332,3.4395834 a 3.175,3.175 0 0 1 3.1750008,3.1749997 3.175,3.175 0 0 1 -3.1750008,3.175 A 3.175,3.175 0 0 1 5.6885415,9.2831541 3.175,3.175 0 0 0 7.1437499,6.6145831 3.175,3.175 0 0 0 5.6885415,3.9460121 3.175,3.175 0 0 1 7.4083332,3.4395834 Z" />
  </g>
</svg>
