<svg xmlns="http://www.w3.org/2000/svg">
  <symbol xmlns="http://www.w3.org/2000/svg" viewBox="0 0 40 40" id="thermal">
    <g color="currentColor" fill="currentColor" stroke="currentColor" stroke-width="0">
      <path d="M 18.356034,5.5180327 V 39.478161 h 3.287932 V 5.5180327 Z" />
      <path d="m 29.313051,5.5180327 c 0,22.1873393 5.65243,33.6040043 5.65243,33.6040043 l 2.940091,-1.470046 c 0,0 -5.308728,-10.497369 -5.308728,-32.1339583 z" />
      <path d="m 7.3948752,5.5180326 c 0,21.6365894 -5.3004468,32.1339584 -5.3004468,32.1339584 L 5.03452,39.122037 c 0,0 5.652429,-11.416666 5.652429,-33.6040044 z" />
      <path d="M 4.9521981,8 9.0020707,1.001754 13.047802,8 Z" />
      <path d="M 15.952198,8 20.002071,1.001754 24.047802,8 Z" />
      <path d="M 26.952198,8 31.002071,1.001754 35.047802,8 Z" />
    </g>
  </symbol>
  <symbol xmlns="http://www.w3.org/2000/svg" viewBox="0 0 40 40" id="cloud">
    <path stroke-width="3" stroke="currentColor" color="currentColor" fill="none" d="m 38.500268,24.645442 c 0,2.933963 -2.363471,5.501181 -5.297434,5.501181 H 6.7971659 c -2.9339631,0 -5.2974335,-2.607968 -5.2974335,-5.501181 0,-2.933964 2.3634704,-5.378933 5.2974335,-5.378933 0.3259959,0 0.6112423,-0.04075 0.9372382,0.04075 0.162998,-3.585955 2.8932139,-6.438419 6.1939219,-6.438419 1.915226,0 3.585955,0.896488 4.726941,2.36347 1.018737,-3.137711 3.789702,-5.3789325 7.049661,-5.3789325 4.115699,0 7.457157,3.6267045 7.457157,8.1091485 0,0.407494 -0.04075,0.855739 -0.0815,1.222484 0.04075,0 0.04075,0.122249 0.0815,0.122249 2.933963,-0.0815 5.338183,2.404219 5.338183,5.338183 z"></path>
  </symbol>
  <symbol xmlns="http://www.w3.org/2000/svg" viewBox="0 0 40 40" id="interactive">
    <g color="currentColor" stroke="currentColor" font-family="sans-serif">
      <path stroke-width="4" d="M 20,0 V 15" />
      <path stroke-width="4" d="M 0,20 H 15" />
      <path stroke-width="4" d="M 20,40 V 25" />
      <path stroke-width="4" d="M 40,20 H 25" />
      <circle cx="20" cy="20" r="1" />
    </g>
  </symbol>
  <symbol xmlns="http://www.w3.org/2000/svg" viewBox="0 0 40 40" id="general">
    <g color="currentColor" fill="currentColor" stroke="currentColor" stroke-width="3">
      <path fill="none" d="m 7.8294323,35.170571 a 17.211784,17.211784 0 0 1 0,-24.341139 17.211784,17.211784 0 0 1 24.3411385,0 17.211784,17.211784 0 0 1 0,24.341139" />
      <path d="M 2.7882171,23 6.4391999,23" />
      <path d="m 33.560802,23 3.650983,0" />
      <path d="m 20,9.4392002 0,-3.6509831" />
      <path d="m 20,23 7.301969,-9.388246" />
      <circle cx="20" cy="22.881145" r="2" />
    </g>
  </symbol>
  <symbol xmlns="http://www.w3.org/2000/svg" viewBox="0 0 40 40" id="wave">
    <g color="currentColor" stroke="currentColor" fill="none">
      <path stroke-width="3" d="M 2,37 15,20 29,37" />
      <path stroke-width="3" d="M 20.532935,28.149238 26,21 34.664529,31.521214" />
      <path stroke-width="2" d="m 1,12 c 0,0 9,-5 19,0.008 10,5.008 19,-1.992 19,-1.992" />
      <path stroke-width="2" d="m 1,6.992 c 0,0 9,-5 19,0.008 10,5.008 19,-1.992 19,-1.992" />
    </g>
  </symbol>
  <symbol xmlns="http://www.w3.org/2000/svg" viewBox="0 0 40 40" id="wind">
    <g color="currentColor" stroke="currentColor" fill="none" stroke-width="3">
      <path d="M 37.969778,5.205165 14.934724,33.890531 1.4752195,27.845268" />
      <path d="M 17.64473,30.515782 4.1852259,24.470519" />
      <path d="M 20.354736,27.141033 13.624985,24.118402" />
    </g>
  </symbol>
</svg>
